<svg width="25" height="26" viewBox="0 0 25 26" fill="none" xmlns="http://www.w3.org/2000/svg">
<path d="M1.5625 0H2.73438H22.2656H23.4375V2.4375H22.2656H2.73438H1.5625V0ZM19.5312 17.0625C19.5312 19.9773 16.3818 22.3438 12.5 22.3438C8.61816 22.3438 5.46875 19.9773 5.46875 17.0625C5.46875 14.1477 8.61816 11.7812 12.5 11.7812C16.3818 11.7812 19.5312 14.1477 19.5312 17.0625ZM1.95312 4.0625H23.0469H24.2188V6.5H23.0469H1.95312H0.78125V4.0625H1.95312ZM4.04785 23.5625H20.957L22.3779 10.5625H2.62695L4.04785 23.5625ZM23.0469 26H1.95312L0.268555 10.5625L0 8.125H2.3584H22.6416H25L24.7314 10.5625L23.0469 26ZM12.5 18.6875C13.3643 18.6875 14.0625 18.1441 14.0625 17.4688C14.0625 16.7934 13.3643 16.25 12.5 16.25C11.6357 16.25 10.9375 16.7934 10.9375 17.4688C10.9375 18.1441 11.6357 18.6875 12.5 18.6875Z" fill="#C2C2C2"/>
</svg>
