<svg width="104" height="41" viewBox="0 0 104 41" xmlns="http://www.w3.org/2000/svg">
<path d="M6.525 31V14.8H0.75V11.5H16.5V14.8H10.725V31H6.525Z"/>
<path d="M35.85 31V16H39.6V18.25H40.2C40.5 17.5 40.9583 16.875 41.575 16.375C42.2083 15.875 43.1333 15.625 44.35 15.625C46.0167 15.625 47.2667 16.15 48.1 17.2C48.9333 18.25 49.35 19.675 49.35 21.475V31H45.3V22.15C45.3 21.1167 45.1167 20.325 44.75 19.775C44.3833 19.2083 43.7833 18.925 42.95 18.925C41.9833 18.925 41.2333 19.3083 40.7 20.075C40.1667 20.825 39.9 21.7667 39.9 22.9V31H35.85ZM52.8422 31V16H56.8922V31H52.8422ZM54.8672 14.275C54.1505 14.275 53.6089 14.0917 53.2422 13.725C52.8755 13.3417 52.6922 12.85 52.6922 12.25C52.6922 11.65 52.8755 11.1667 53.2422 10.8C53.6089 10.4167 54.1505 10.225 54.8672 10.225C55.5839 10.225 56.1255 10.4167 56.4922 10.8C56.8589 11.1667 57.0422 11.65 57.0422 12.25C57.0422 12.85 56.8589 13.3417 56.4922 13.725C56.1255 14.0917 55.5839 14.275 54.8672 14.275ZM65.4559 31.375C63.7892 31.375 62.5309 30.85 61.6809 29.8C60.8309 28.75 60.4059 27.325 60.4059 25.525V16H64.4559V24.85C64.4559 25.8667 64.6392 26.6583 65.0059 27.225C65.3725 27.7917 65.9642 28.075 66.7809 28.075C67.7642 28.075 68.5225 27.6917 69.0559 26.925C69.5892 26.1583 69.8559 25.2167 69.8559 24.1V16H73.9059V31H70.2559V28.75H69.6559C69.4059 29.5 68.9475 30.125 68.2809 30.625C67.6142 31.125 66.6725 31.375 65.4559 31.375ZM77.598 31V16H81.348V18.25H81.948C82.2314 17.5333 82.6814 16.9167 83.298 16.4C83.9147 15.8833 84.8064 15.625 85.973 15.625C87.0064 15.625 87.8647 15.8583 88.548 16.325C89.248 16.775 89.7814 17.4167 90.148 18.25H90.748C91.048 17.5 91.5147 16.875 92.148 16.375C92.7814 15.875 93.6564 15.625 94.773 15.625C96.3897 15.625 97.598 16.15 98.398 17.2C99.198 18.25 99.598 19.675 99.598 21.475V31H95.548V22.15C95.548 21.1333 95.3814 20.3417 95.048 19.775C94.7147 19.2083 94.173 18.925 93.423 18.925C92.5064 18.925 91.8064 19.3083 91.323 20.075C90.8564 20.8417 90.623 21.7833 90.623 22.9V31H86.573V22.15C86.573 21.1333 86.4064 20.3417 86.073 19.775C85.7397 19.2083 85.198 18.925 84.448 18.925C83.548 18.925 82.8564 19.3083 82.373 20.075C81.8897 20.8417 81.648 21.7833 81.648 22.9V31H77.598Z"/>
<path d="M16 24C16 21.8783 16.8429 19.8434 18.3431 18.3431C19.8434 16.8429 21.8783 16 24 16C26.1217 16 28.1566 16.8429 29.6569 18.3431C31.1571 19.8434 32 21.8783 32 24C32 26.1217 31.1571 28.1566 29.6569 29.6569C28.1566 31.1571 26.1217 32 24 32C21.8783 32 19.8434 31.1571 18.3431 29.6569C16.8429 28.1566 16 26.1217 16 24ZM24 21C24.7956 21 25.5587 21.3161 26.1213 21.8787C26.6839 22.4413 27 23.2044 27 24C27 24.7956 26.6839 25.5587 26.1213 26.1213C25.5587 26.6839 24.7956 27 24 27C23.2044 27 22.4413 26.6839 21.8787 26.1213C21.3161 25.5587 21 24.7956 21 24C21 23.2044 21.3161 22.4413 21.8787 21.8787C22.4413 21.3161 23.2044 21 24 21ZM24 28C25.0609 28 26.0783 27.5786 26.8284 26.8284C27.5786 26.0783 28 25.0609 28 24C28 22.9391 27.5786 21.9217 26.8284 21.1716C26.0783 20.4214 25.0609 20 24 20C22.9391 20 21.9217 20.4214 21.1716 21.1716C20.4214 21.9217 20 22.9391 20 24C20 25.0609 20.4214 26.0783 21.1716 26.8284C21.9217 27.5786 22.9391 28 24 28ZM24 25C24.2652 25 24.5196 24.8946 24.7071 24.7071C24.8946 24.5196 25 24.2652 25 24C25 23.7348 24.8946 23.4804 24.7071 23.2929C24.5196 23.1054 24.2652 23 24 23C23.7348 23 23.4804 23.1054 23.2929 23.2929C23.1054 23.4804 23 23.7348 23 24C23 24.2652 23.1054 24.5196 23.2929 24.7071C23.4804 24.8946 23.7348 25 24 25Z"/>
</svg>
