<?xml version="1.0" standalone="no"?>
<!DOCTYPE svg PUBLIC "-//W3C//DTD SVG 20010904//EN"
 "http://www.w3.org/TR/2001/REC-SVG-20010904/DTD/svg10.dtd">
<svg version="1.0" xmlns="http://www.w3.org/2000/svg"
 width="512.000000pt" height="512.000000pt" viewBox="0 0 512.000000 512.000000"
 preserveAspectRatio="xMidYMid meet">

<g transform="translate(0.000000,512.000000) scale(0.100000,-0.100000)"
fill="#000000" stroke="none">
<path d="M482 5105 c-223 -49 -420 -247 -467 -471 -22 -104 -22 -4044 0 -4148
48 -226 245 -423 471 -471 104 -22 4044 -22 4148 0 226 48 423 245 471 471 22
104 22 4044 0 4148 -48 226 -245 423 -471 471 -100 21 -4055 21 -4152 0z
m4085 -538 l28 -27 3 -1431 2 -1431 -32 5 c-18 3 -288 27 -599 53 l-566 48
-283 324 c-155 178 -296 332 -314 343 -34 20 -108 25 -149 10 -14 -5 -132 -95
-263 -200 -131 -105 -242 -187 -246 -183 -4 4 -118 257 -254 562 -136 305
-258 570 -271 588 -33 44 -65 64 -117 69 -57 7 -105 -10 -143 -50 -16 -17
-207 -318 -423 -667 -216 -349 -399 -642 -406 -650 -12 -12 -14 172 -12 1297
l3 1311 24 26 c13 14 33 27 45 29 11 2 904 4 1983 3 l1963 -1 27 -28z m-2873
-2335 c126 -284 239 -531 252 -548 46 -63 155 -85 222 -44 18 11 145 110 282
220 l249 200 241 -278 c133 -152 257 -289 276 -304 19 -14 51 -29 72 -32 20
-3 305 -28 632 -56 327 -27 614 -52 638 -56 l42 -5 0 -65 0 -64 -2041 0 -2040
0 3 24 c3 23 927 1526 938 1525 3 0 108 -232 234 -517z m2901 -1519 c0 -132 0
-133 -28 -160 l-27 -28 -1980 0 -1980 0 -27 28 c-27 26 -28 32 -32 147 -2 66
-1 127 3 135 5 13 240 15 2038 13 l2033 -3 0 -132z"/>
<path d="M3198 4155 c-211 -53 -387 -230 -442 -442 -20 -77 -20 -221 -1 -298
53 -209 217 -377 430 -441 42 -13 92 -18 165 -18 90 0 117 5 190 30 198 69
334 214 396 420 24 79 24 237 0 318 -57 192 -206 352 -387 416 -82 29 -265 37
-351 15z"/>
</g>
</svg>
