<svg width="26" height="26" viewBox="0 0 26 26" xmlns="http://www.w3.org/2000/svg">
<path d="M21.237 10.6185C21.237 12.9617 20.4763 15.1263 19.195 16.8824L24.8412 22.5337L26 23.6874L23.6874 26L22.5337 24.8463L16.8824 19.195C15.1263 20.4814 12.9617 21.237 10.6185 21.237C4.7528 21.237 0 16.4842 0 10.6185C0 4.7528 4.7528 0 10.6185 0C16.4842 0 21.237 4.7528 21.237 10.6185ZM10.6185 17.9698C11.5839 17.9698 12.5398 17.7796 13.4317 17.4102C14.3236 17.0407 15.134 16.4993 15.8166 15.8166C16.4993 15.134 17.0407 14.3236 17.4102 13.4317C17.7796 12.5398 17.9698 11.5839 17.9698 10.6185C17.9698 9.65311 17.7796 8.69718 17.4102 7.80529C17.0407 6.91339 16.4993 6.10299 15.8166 5.42037C15.134 4.73774 14.3236 4.19625 13.4317 3.82681C12.5398 3.45738 11.5839 3.26723 10.6185 3.26723C9.65311 3.26723 8.69718 3.45738 7.80529 3.82681C6.91339 4.19625 6.10299 4.73774 5.42037 5.42037C4.73774 6.10299 4.19625 6.91339 3.82681 7.80529C3.45738 8.69718 3.26723 9.65311 3.26723 10.6185C3.26723 11.5839 3.45738 12.5398 3.82681 13.4317C4.19625 14.3236 4.73774 15.134 5.42037 15.8166C6.10299 16.4993 6.91339 17.0407 7.80529 17.4102C8.69718 17.7796 9.65311 17.9698 10.6185 17.9698Z"/>
</svg>
