<svg width="30" height="30" viewBox="0 0 30 30" fill="none" xmlns="http://www.w3.org/2000/svg">
<path d="M11.7188 0H18.2812L19.2891 4.59375C20.2148 4.97461 21.082 5.47852 21.8672 6.08203L26.3496 4.65234L29.6309 10.3359L26.1504 13.5059C26.2148 13.9922 26.25 14.4902 26.25 14.9941C26.25 15.498 26.2148 15.9961 26.1504 16.4824L29.6309 19.6523L26.3496 25.3359L21.8672 23.9062C21.082 24.5098 20.2148 25.0137 19.2891 25.3945L18.2812 30H11.7188L10.7109 25.4062C9.78516 25.0254 8.91797 24.5215 8.13281 23.918L3.65039 25.3418L0.369141 19.6582L3.84961 16.4883C3.78516 16.002 3.75 15.5039 3.75 15C3.75 14.4961 3.78516 13.998 3.84961 13.5117L0.369141 10.3418L3.65039 4.6582L8.13281 6.08789C8.91797 5.48438 9.78516 4.98047 10.7109 4.59961L11.7188 0ZM15 19.6875C16.2432 19.6875 17.4355 19.1936 18.3146 18.3146C19.1936 17.4355 19.6875 16.2432 19.6875 15C19.6875 13.7568 19.1936 12.5645 18.3146 11.6854C17.4355 10.8064 16.2432 10.3125 15 10.3125C13.7568 10.3125 12.5645 10.8064 11.6854 11.6854C10.8064 12.5645 10.3125 13.7568 10.3125 15C10.3125 16.2432 10.8064 17.4355 11.6854 18.3146C12.5645 19.1936 13.7568 19.6875 15 19.6875Z" fill="#C2C2C2"/>
</svg>
